<svg id="cube" xmlns="http://www.w3.org/2000/svg" width="399.463" height="380.91" viewBox="0 0 399.463 380.91">
  <path id="Path_5" data-name="Path 5" d="M20.455,20.455,171.383-15.617,137.077,137.077-15.617,171.383Z" transform="translate(132.229 22.086) rotate(45)" fill="#98f3c9"/>
  <path id="Path_7" data-name="Path 7" d="M-2693.729-272.5v164.881l132.242,83.795-.063-164.994Z" transform="translate(2693.729 404.729)" fill="#16e182"/>
  <path id="Path_19" data-name="Path 19" d="M8.154,8.154,68.315-6.225,54.64,54.64-6.225,68.315Z" transform="translate(346.753 155.361) rotate(45)" fill="#37dbe1"/>
  <path id="Path_9" data-name="Path 9" d="M-2693.729-272.5v39.963l32.052,20.31-.015-39.991Z" transform="translate(2743.729 499.006)" fill="#f6fafb" opacity="0.68"/>
  <path id="Path_20" data-name="Path 20" d="M-2693.729-272.5v65.723l52.713,33.4-.025-65.768Z" transform="translate(2987.775 471.765)" fill="#16b0e1"/>
  <path id="Path_15" data-name="Path 15" d="M-2693.729-272.5v39.963l32.052,20.31-.015-39.991Z" transform="translate(2711.729 518.998)" fill="#f6fafb" opacity="0.68"/>
  <path id="Path_23" data-name="Path 23" d="M-2693.729-272.5v15.93l12.776,8.1-.006-15.941Z" transform="translate(3007.706 509.345)" fill="#f6fafb" opacity="0.68"/>
  <path id="Path_13" data-name="Path 13" d="M-2693.729-272.5v39.963l32.052,20.31-.015-39.991Z" transform="translate(2711.729 439.032)" fill="#f6fafb" opacity="0.68"/>
  <path id="Path_24" data-name="Path 24" d="M-2693.729-272.5v15.93l12.776,8.1-.006-15.941Z" transform="translate(2994.95 517.314)" fill="#f6fafb" opacity="0.68"/>
  <path id="Path_14" data-name="Path 14" d="M-2693.729-272.5v39.963l32.052,20.31-.015-39.991Z" transform="translate(2775.729 479.015)" fill="#f6fafb" opacity="0.68"/>
  <path id="Path_25" data-name="Path 25" d="M-2693.729-272.5v15.93l12.776,8.1-.006-15.941Z" transform="translate(2994.95 485.439)" fill="#f6fafb" opacity="0.68"/>
  <path id="Path_8" data-name="Path 8" d="M-2561.01-272.484l.016,164.941-132.234,83.727-.437-165Z" transform="translate(2825.458 404.726)" fill="#36c984"/>
  <path id="Path_21" data-name="Path 21" d="M-2693.729-272.5v15.93l12.776,8.1-.006-15.941Z" transform="translate(3020.461 501.376)" fill="#f6fafb" opacity="0.68"/>
  <path id="Path_10" data-name="Path 10" d="M-2658.251-272.5v44.234l-35.478,22.48.017-44.265Z" transform="translate(2875.303 492.565)" fill="#f6fafb"/>
  <path id="Path_16" data-name="Path 16" d="M-2640.788-272.484l.006,65.747-52.71,33.374-.174-65.77Z" transform="translate(3040.245 471.755)" fill="#007ba2"/>
  <path id="Path_12" data-name="Path 12" d="M-2670.558-272.5v28.89l-23.171,14.682.011-28.91Z" transform="translate(2910.61 443.239)" fill="#f6fafb"/>
  <path id="Path_17" data-name="Path 17" d="M-2679.587-272.5v17.632l-14.142,8.961.007-17.644Z" transform="translate(3060.152 506.777)" fill="#f6fafb"/>
  <path id="Path_11" data-name="Path 11" d="M-2676.418-272.5v21.583l-17.311,10.969.008-21.6Z" transform="translate(2858.471 564.811)" fill="#f6fafb"/>
  <path id="Path_22" data-name="Path 22" d="M-2684.493-272.5v11.516l-9.236,5.853,0-11.524Z" transform="translate(3074.226 487.116)" fill="#f6fafb"/>
  <path id="Path_18" data-name="Path 18" d="M-2686.829-272.5v8.6l-6.9,4.372,0-8.609Z" transform="translate(3053.442 535.575)" fill="#f6fafb"/>
</svg>
