<svg id="icon-2" xmlns="http://www.w3.org/2000/svg" width="102.568" height="82.5" viewBox="0 0 102.568 82.5">
  <path id="iconfinder_31.ID-Horizontal_290119" d="M94.649,87.5H9.919A8.919,8.919,0,0,1,1,78.581V31.757a8.919,8.919,0,0,1,8.919-8.919H43.365V13.919a8.919,8.919,0,0,1,17.838,0v8.919H94.649a8.919,8.919,0,0,1,8.919,8.919V78.581A8.919,8.919,0,0,1,94.649,87.5ZM36.707,70.75v.009c-.009,0-.04-1.741-.04-1.741A25.017,25.017,0,0,0,41.2,65.945a6.754,6.754,0,0,0,1.652-3.037,74.979,74.979,0,0,0,.531-8.257c0-4.6-2.3-9.543-8.935-9.543v0c-6.631,0-8.935,4.948-8.935,9.543a75.531,75.531,0,0,0,.531,8.257,6.754,6.754,0,0,0,1.652,3.037,25.016,25.016,0,0,0,4.529,3.073s-.031,1.741-.04,1.741v-.009s.065,2.555.065,3.316c0,3.037-3.044,4.5-4.957,4.5h-.007c-5.782.252-7.146,2.176-7.157,2.194a10.874,10.874,0,0,0-1.291,2.283H50.059a10.383,10.383,0,0,0-1.3-2.279c-.011-.02-1.376-1.942-7.157-2.194H41.6c-1.911,0-4.957-1.46-4.957-4.5C36.64,73.306,36.707,70.75,36.707,70.75ZM56.743,13.919a4.459,4.459,0,1,0-8.919,0V27.3a4.459,4.459,0,1,0,8.919,0ZM99.108,31.757A4.461,4.461,0,0,0,94.649,27.3H61.2a8.919,8.919,0,1,1-17.838,0H9.919a4.461,4.461,0,0,0-4.459,4.459V78.581a4.461,4.461,0,0,0,4.459,4.459h4.007a24.172,24.172,0,0,1,2.586-4.995c.056-.031,1.891-3.877,11.144-3.991.013-.047.022-2.323.049-2.29a16.245,16.245,0,0,1-2.343-1.819,9.336,9.336,0,0,1-3.238-5.759A87.981,87.981,0,0,1,21.036,54.9c0-7.07,2.821-14.228,13.274-14.228h.27c10.453,0,13.274,7.157,13.274,14.228a87.981,87.981,0,0,1-1.088,9.289,9.337,9.337,0,0,1-3.238,5.759,15.854,15.854,0,0,1-2.343,1.819c.029-.033.038,2.245.049,2.29,9.256.114,11.091,3.96,11.144,3.991a24.172,24.172,0,0,1,2.586,4.995H94.649a4.461,4.461,0,0,0,4.459-4.459ZM87.959,51.824H61.2a2.23,2.23,0,0,1,0-4.459H87.959a2.23,2.23,0,0,1,0,4.459ZM61.2,60.743h4.459a2.23,2.23,0,1,1,0,4.459H61.2a2.23,2.23,0,1,1,0-4.459Zm0,8.919H74.581a2.23,2.23,0,0,1,0,4.459H61.2a2.23,2.23,0,0,1,0-4.459Zm8.919-6.689a2.228,2.228,0,0,1,2.23-2.23H81.27a2.23,2.23,0,1,1,0,4.459H72.351A2.228,2.228,0,0,1,70.122,62.973ZM50.054,13.919h4.459v4.459H50.054Z" transform="translate(-1 -5)" fill="#fff" fill-rule="evenodd"/>
</svg>
