<svg id="icon-1" xmlns="http://www.w3.org/2000/svg" width="99.834" height="82.472" viewBox="0 0 99.834 82.472">
  <path id="iconfinder_46.Calendar_290104" d="M92.153,87.472H9.681A8.682,8.682,0,0,1,1,78.791V13.681A8.682,8.682,0,0,1,9.681,5H92.153a8.682,8.682,0,0,1,8.681,8.681V78.791A8.682,8.682,0,0,1,92.153,87.472Zm4.341-73.791a4.342,4.342,0,0,0-4.341-4.341H9.681a4.342,4.342,0,0,0-4.341,4.341V26.7H96.494Zm0,17.363H5.341V78.791a4.342,4.342,0,0,0,4.341,4.341H92.153a4.342,4.342,0,0,0,4.341-4.341ZM87.813,61.428H83.472a2.17,2.17,0,0,1-2.17-2.17V54.917a2.171,2.171,0,0,1,2.17-2.17h4.341a2.17,2.17,0,0,1,2.17,2.17v4.341A2.168,2.168,0,0,1,87.813,61.428Zm0-15.192H83.472a2.17,2.17,0,0,1-2.17-2.17V39.725a2.17,2.17,0,0,1,2.17-2.17h4.341a2.168,2.168,0,0,1,2.17,2.17v4.341A2.168,2.168,0,0,1,87.813,46.236ZM70.45,61.428H66.109a2.17,2.17,0,0,1-2.17-2.17V54.917a2.171,2.171,0,0,1,2.17-2.17H70.45a2.17,2.17,0,0,1,2.17,2.17v4.341A2.168,2.168,0,0,1,70.45,61.428Zm0-15.192H66.109a2.17,2.17,0,0,1-2.17-2.17V39.725a2.17,2.17,0,0,1,2.17-2.17H70.45a2.168,2.168,0,0,1,2.17,2.17v4.341A2.168,2.168,0,0,1,70.45,46.236ZM53.088,61.428H48.747a2.168,2.168,0,0,1-2.17-2.17V54.917a2.17,2.17,0,0,1,2.17-2.17h4.341a2.17,2.17,0,0,1,2.17,2.17v4.341A2.168,2.168,0,0,1,53.088,61.428Zm0-15.192H48.747a2.168,2.168,0,0,1-2.17-2.17V39.725a2.168,2.168,0,0,1,2.17-2.17h4.341a2.168,2.168,0,0,1,2.17,2.17v4.341A2.168,2.168,0,0,1,53.088,46.236ZM35.725,76.62H31.384a2.168,2.168,0,0,1-2.17-2.17V70.109a2.168,2.168,0,0,1,2.17-2.17h4.341a2.168,2.168,0,0,1,2.17,2.17V74.45A2.168,2.168,0,0,1,35.725,76.62Zm0-15.192H31.384a2.168,2.168,0,0,1-2.17-2.17V54.917a2.17,2.17,0,0,1,2.17-2.17h4.341a2.17,2.17,0,0,1,2.17,2.17v4.341A2.168,2.168,0,0,1,35.725,61.428Zm0-15.192H31.384a2.168,2.168,0,0,1-2.17-2.17V39.725a2.168,2.168,0,0,1,2.17-2.17h4.341a2.168,2.168,0,0,1,2.17,2.17v4.341A2.168,2.168,0,0,1,35.725,46.236ZM18.363,76.62H14.022a2.168,2.168,0,0,1-2.17-2.17V70.109a2.168,2.168,0,0,1,2.17-2.17h4.341a2.168,2.168,0,0,1,2.17,2.17V74.45A2.168,2.168,0,0,1,18.363,76.62Zm0-15.192H14.022a2.168,2.168,0,0,1-2.17-2.17V54.917a2.17,2.17,0,0,1,2.17-2.17h4.341a2.17,2.17,0,0,1,2.17,2.17v4.341A2.168,2.168,0,0,1,18.363,61.428Zm30.384,6.511h4.341a2.168,2.168,0,0,1,2.17,2.17V74.45a2.168,2.168,0,0,1-2.17,2.17H48.747a2.168,2.168,0,0,1-2.17-2.17V70.109A2.168,2.168,0,0,1,48.747,67.939Z" transform="translate(-1 -5)" fill="#fff" fill-rule="evenodd"/>
</svg>
