<svg id="icon-3" xmlns="http://www.w3.org/2000/svg" width="111.618" height="82.5" viewBox="0 0 111.618 82.5">
  <path id="iconfinder_25.Camera-Front_290125" d="M102.912,89.5H10.706A9.706,9.706,0,0,1,1,79.794V26.412a9.706,9.706,0,0,1,9.706-9.706h2.426a4.855,4.855,0,0,1,4.853-4.853h4.853a4.855,4.855,0,0,1,4.853,4.853h4.853A8.974,8.974,0,0,0,37.4,14.279L42.25,9.426A6.748,6.748,0,0,1,47.1,7H66.515a6.185,6.185,0,0,1,4.853,2.426l4.853,4.853a8.974,8.974,0,0,0,4.853,2.426h21.838a9.706,9.706,0,0,1,9.706,9.706V79.794A9.706,9.706,0,0,1,102.912,89.5Zm4.853-63.088a4.855,4.855,0,0,0-4.853-4.853l-22.374-.032A13.665,13.665,0,0,1,72.79,17.71l-5.168-5.168-.252-.366a1.465,1.465,0,0,0-.854-.323H47.1a1.982,1.982,0,0,0-1.029.561l-.182.233-5.064,5.062a13.661,13.661,0,0,1-7.748,3.817l-10.072.015c-.058,0-.114.019-.17.019H17.985c-.034,0-.063-.01-.1-.01l-7.182.01a4.855,4.855,0,0,0-4.853,4.853V79.794a4.855,4.855,0,0,0,4.853,4.853h92.206a4.855,4.855,0,0,0,4.853-4.853ZM56.809,79.794A26.691,26.691,0,1,1,83.5,53.1,26.692,26.692,0,0,1,56.809,79.794Zm0-48.529A21.838,21.838,0,1,0,78.647,53.1,21.837,21.837,0,0,0,56.809,31.265Zm0,33.971A12.132,12.132,0,1,1,68.941,53.1,12.131,12.131,0,0,1,56.809,65.235Zm0-19.412A7.279,7.279,0,1,0,64.088,53.1,7.282,7.282,0,0,0,56.809,45.824ZM22.838,36.118H13.132a2.424,2.424,0,0,1-2.426-2.426V28.838a2.426,2.426,0,0,1,2.426-2.426h9.706a2.426,2.426,0,0,1,2.426,2.426v4.853A2.424,2.424,0,0,1,22.838,36.118Z" transform="translate(-1 -7)" fill="#fff" fill-rule="evenodd"/>
</svg>
