<svg xmlns="http://www.w3.org/2000/svg" xmlns:xlink="http://www.w3.org/1999/xlink" width="150.932" height="56.798" viewBox="0 0 150.932 56.798">
  <defs>
    <filter id="MySite" x="46.932" y="2.801" width="104" height="48" filterUnits="userSpaceOnUse">
      <feOffset dy="3" input="SourceAlpha"/>
      <feGaussianBlur stdDeviation="3" result="blur"/>
      <feFlood flood-opacity="0.161"/>
      <feComposite operator="in" in2="blur"/>
      <feComposite in="SourceGraphic"/>
    </filter>
    <filter id="Path_3" x="2" y="14" width="56.619" height="42.798" filterUnits="userSpaceOnUse">
      <feOffset dy="3" input="SourceAlpha"/>
      <feGaussianBlur stdDeviation="3" result="blur-2"/>
      <feFlood flood-opacity="0.161"/>
      <feComposite operator="in" in2="blur-2"/>
      <feComposite in="SourceGraphic"/>
    </filter>
    <filter id="Path_4" x="0" y="0" width="56.619" height="42.798" filterUnits="userSpaceOnUse">
      <feOffset dy="3" input="SourceAlpha"/>
      <feGaussianBlur stdDeviation="3" result="blur-3"/>
      <feFlood flood-opacity="0.161"/>
      <feComposite operator="in" in2="blur-3"/>
      <feComposite in="SourceGraphic"/>
    </filter>
  </defs>
  <g id="logo-white" transform="translate(9 6)">
    <g transform="matrix(1, 0, 0, 1, -9, -6)" filter="url(#MySite)">
      <text id="MySite-2" data-name="MySite" transform="translate(55.93 33.8)" fill="#f6fafb" font-size="25" font-family="Tahoma-Bold, Tahoma" font-weight="700"><tspan x="0" y="0">MySite</tspan></text>
    </g>
    <g transform="matrix(1, 0, 0, 1, -9, -6)" filter="url(#Path_3)">
      <path id="Path_3-2" data-name="Path 3" d="M3.806-.036,5.113,0C7.278.059,9.065,2.239,9.1,4.87l.423,28.582c.039,2.631-1.685,4.716-3.85,4.657l-1.307-.036C2.205,38.014.418,35.834.379,33.2L-.044,4.621C-.083,1.99,1.641-.1,3.806-.036Z" transform="translate(45.56 20.06) rotate(65)" fill="#16b0e1"/>
    </g>
    <g transform="matrix(1, 0, 0, 1, -9, -6)" filter="url(#Path_4)">
      <path id="Path_4-2" data-name="Path 4" d="M3.806-.036,5.113,0C7.278.059,9.065,2.239,9.1,4.87l.423,28.582c.039,2.631-1.685,4.716-3.85,4.657l-1.307-.036C2.205,38.014.418,35.834.379,33.2L-.044,4.621C-.083,1.99,1.641-.1,3.806-.036Z" transform="translate(43.56 6.06) rotate(65)" fill="#16e182"/>
    </g>
  </g>
</svg>
